<svg width="314" height="64" viewBox="0 0 314 64" fill="none" xmlns="http://www.w3.org/2000/svg">
<g clip-path="url(#clip0_14_1173)">
<path d="M19.1912 29.109H24.712V0.648336H19.1912V29.109ZM52.2501 19.847L34.9123 0.648336H31.1529V29.109H36.6736V10.0823L53.8932 29.109H57.8366V0.648336H52.3158L52.2501 19.847ZM5.52076 0.648336H0V29.109H14.2488V24.478H5.52076V0.648336ZM64.1066 29.109H79.8802V24.478H69.6668V16.5392H79.315V11.9082H69.6668V5.29254H79.8933V0.648336H64.1197L64.1066 29.109ZM281.559 13.6018L293.389 0.714492H286.554L276.262 12.6227V0.714492H271.004V29.109H276.262V16.817L276.893 16.4598L286.804 29.109H294.033L281.559 14.1311V13.6018ZM264.931 9.26194C264.931 3.09613 260.738 0.793881 255.059 0.793881H252.43H247.172V29.109H252.43V17.5315H252.877L260.541 29.109H267.428L258.635 17.2007C260.464 16.8746 262.112 15.8886 263.271 14.4273C264.43 12.966 265.02 11.1296 264.931 9.26194V9.26194ZM254.415 13.7871H252.378V5.37192H254.376C257.202 5.37192 259.292 6.52305 259.292 9.59272C259.344 12.3448 257.294 13.7341 254.428 13.7341L254.415 13.7871ZM306.442 11.9082C301.657 10.5851 301.499 8.69299 301.499 7.80649C301.499 6.6289 302.564 4.65743 305.522 4.65743C306.405 4.6705 307.274 4.87597 308.071 5.2597C308.867 5.64343 309.572 6.19631 310.135 6.8803C311.608 5.23961 312.975 3.47984 312.975 3.47984C312.009 2.3431 310.794 1.44866 309.424 0.867561C308.055 0.286461 306.571 0.0347129 305.088 0.132313C300.106 0.132313 295.887 2.8712 295.887 8.30928C295.887 12.9006 299.699 14.7265 301.736 15.5865C303.773 16.4466 308.387 16.9097 308.387 20.8791C308.391 21.8915 308.001 22.8652 307.301 23.5921C306.601 24.319 305.646 24.7414 304.641 24.7691C303.335 24.7481 302.053 24.4202 300.896 23.8113C299.739 23.2025 298.739 22.3298 297.977 21.2628C294.506 24.4515 294.533 24.4515 294.533 24.4515C295.521 26.1 296.924 27.4572 298.599 28.3864C300.274 29.3155 302.163 29.7838 304.076 29.7441C310.333 29.7441 313.974 25.682 313.974 20.4821C313.974 15.2822 309.767 12.8344 306.442 11.9082ZM228.717 0C218.202 0 213.548 7.79326 213.548 14.8853C213.548 21.3951 217.742 29.7044 228.52 29.7044C239.299 29.7044 243.492 21.3951 243.492 14.8853C243.492 8.37544 239.233 0 228.717 0ZM228.533 24.5574C221.724 24.5574 219.082 19.1325 219.082 14.872C219.082 10.2411 222 5.14699 228.652 5.14699C235.303 5.14699 237.984 10.6248 237.984 14.8853C237.984 19.1458 235.355 24.5574 228.56 24.5574H228.533ZM147.759 9.26194C147.759 3.09613 143.566 0.793881 137.888 0.793881H135.259H130.001V29.109H135.259V17.5315H135.706L143.382 29.109H150.27L141.476 17.2007C143.303 16.8718 144.948 15.8845 146.104 14.4235C147.261 12.9625 147.849 11.1277 147.759 9.26194V9.26194ZM137.244 13.7871H135.259V5.37192H137.257C140.083 5.37192 142.173 6.52305 142.173 9.59272C142.173 12.3448 140.122 13.7341 137.257 13.7341L137.244 13.7871ZM151.4 5.29254H157.736V29.109H162.994V5.29254H169.29V0.701261H151.4V5.29254ZM110.06 0.701261L98.0987 29.109H103.738L106.183 23.1019H118.171L120.642 29.109H126.281L114.359 0.701261H110.06ZM108.036 18.5239L112.177 8.36221L116.33 18.5239H108.036ZM200.443 20.0719L193.766 0.701261H190.94L183.92 20.0719L177.769 0.701261H172.038L181.673 29.109H185.931L186.431 27.9049L192.307 11.0482L198.025 27.9049L198.485 29.109H202.743L212.944 0.701261H207.213L200.443 20.0719Z" fill="#2C2C2B"/>
<path d="M101.319 47.0903H100.07L99.2685 51.2185H96.7185L97.494 47.0903H96.1795L95.404 51.2185H93.13V52.3035H95.2331L94.6416 55.5716H92.3281V56.6698H94.4313L93.6557 60.8245H94.9702L95.7457 56.6698H98.2827L97.5203 60.8245H98.8347L99.6103 56.6698H101.937V55.5716H99.8337L100.465 52.3432H102.765V51.2582H100.662L101.319 47.0903ZM98.4667 55.5716H95.9561L96.5607 52.3432H99.1239L98.4667 55.5716ZM112.663 50.676H110.415L105.801 55.5187V50.6231H104.171V60.7716H105.828V57.3314L107.405 55.7833L111.072 60.7716H113.176L108.588 54.619L112.663 50.676ZM118.723 50.2791C115.673 50.2791 113.78 52.3432 113.78 55.6907C113.78 59.0382 115.62 60.9833 118.709 60.9833C121.798 60.9833 123.56 59.0779 123.56 55.6378C123.56 52.1976 121.772 50.2791 118.723 50.2791ZM118.723 59.6204C116.698 59.6204 115.502 58.1518 115.502 55.651C115.502 53.1503 116.738 51.6816 118.683 51.6816C120.629 51.6816 121.851 53.2165 121.851 55.651C121.851 58.0856 120.668 59.6734 118.723 59.6734V59.6204ZM129.764 59.6204C127.884 59.6204 126.754 58.1253 126.754 55.651C126.754 53.1768 127.963 51.6816 129.882 51.6816C130.506 51.6515 131.118 51.8642 131.59 52.2756C132.062 52.6869 132.359 53.2655 132.419 53.8913H134.076C133.985 52.8518 133.492 51.8899 132.702 51.2139C131.912 50.5379 130.89 50.2021 129.856 50.2791C126.885 50.2791 125.006 52.4093 125.006 55.7833C125.006 58.8662 126.662 61.0759 129.79 61.0759C130.896 61.1337 131.98 60.7487 132.805 60.005C133.63 59.2614 134.129 58.2193 134.194 57.1065H132.511C132.501 57.4575 132.422 57.803 132.278 58.1228C132.134 58.4426 131.928 58.7304 131.672 58.9693C131.416 59.2082 131.116 59.3935 130.788 59.5144C130.461 59.6353 130.113 59.6893 129.764 59.6734V59.6204ZM141.489 58.8001L138.426 50.5834H136.047V60.7319H137.704V52.7931L140.687 60.7319H142.212L145.196 52.7931V60.7319H146.852V50.6231H144.591L141.489 58.8001ZM153.793 50.2791C150.743 50.2791 148.85 52.3432 148.85 55.6907C148.85 59.0382 150.69 60.9833 153.766 60.9833C156.842 60.9833 158.617 58.9721 158.617 55.5319C158.617 52.0918 156.855 50.2791 153.793 50.2791ZM153.793 59.6204C151.755 59.6204 150.572 58.1518 150.572 55.651C150.572 53.1503 151.808 51.6816 153.753 51.6816C155.699 51.6816 156.921 53.2165 156.921 55.651C156.921 58.0856 155.764 59.6734 153.793 59.6734V59.6204ZM164.834 59.6204C162.954 59.6204 161.824 58.1253 161.824 55.651C161.824 53.1768 163.033 51.6816 164.952 51.6816C165.576 51.6515 166.188 51.8642 166.66 52.2756C167.132 52.6869 167.429 53.2655 167.489 53.8913H169.211C169.167 53.3716 169.021 52.866 168.782 52.4032C168.543 51.9404 168.216 51.5295 167.819 51.194C167.422 50.8586 166.964 50.6051 166.47 50.4481C165.975 50.2911 165.455 50.2337 164.939 50.2791C161.969 50.2791 160.089 52.4093 160.089 55.7833C160.089 58.8662 161.745 61.0759 164.874 61.0759C165.977 61.1301 167.058 60.7435 167.88 60.0002C168.702 59.2569 169.199 58.2169 169.264 57.1065H167.595C167.584 57.4575 167.505 57.803 167.361 58.1228C167.217 58.4426 167.011 58.7304 166.755 58.9693C166.5 59.2082 166.199 59.3935 165.872 59.5144C165.544 59.6353 165.196 59.6893 164.847 59.6734L164.834 59.6204ZM176.94 55.2012C177.411 55.0813 177.828 54.8039 178.122 54.4144C178.415 54.0249 178.569 53.5465 178.557 53.0577C178.557 51.1656 176.835 50.3188 174.772 50.3188C172.708 50.3188 170.67 51.0465 170.513 53.5472H172.195C172.327 52.2241 173.51 51.6816 174.758 51.6816C176.007 51.6816 176.888 52.3961 176.888 53.1371C176.888 54.3411 175.928 54.791 174.758 54.791H173.641V56.1141H175.021C176.572 56.1141 177.177 56.7492 177.177 57.768C177.177 58.7869 176.283 59.6998 174.693 59.6998C173.102 59.6998 172.064 59.0382 172.064 57.5828H170.355C170.473 59.7792 172.09 61.0626 174.732 61.0626C176.862 61.0626 178.912 59.938 178.912 57.7416C178.944 57.1578 178.762 56.5825 178.401 56.1243C178.04 55.6661 177.525 55.3566 176.954 55.2541L176.94 55.2012ZM189.283 50.6231H182.093V52.7931C182.086 55.029 181.639 57.2415 180.779 59.3029H179.688V64H181.396V60.7716H189.099V64H190.598V59.3029H189.283V50.6231ZM187.627 59.2896H182.579C183.369 57.2673 183.766 55.1114 183.749 52.9386V52.0918H187.693L187.627 59.2896ZM196.237 50.2791C193.437 50.2791 191.544 52.502 191.544 55.7833C191.544 59.0647 193.319 61.0759 196.289 61.0759C197.332 61.1602 198.368 60.84 199.184 60.1807C200.001 59.5215 200.535 58.5732 200.68 57.5299H199.063C198.965 58.1681 198.633 58.7459 198.131 59.1481C197.629 59.5502 196.995 59.7473 196.355 59.6998C195.916 59.7143 195.48 59.6332 195.075 59.4622C194.67 59.2911 194.307 59.0342 194.01 58.7088C193.713 58.3834 193.489 57.9974 193.354 57.577C193.219 57.1566 193.175 56.7117 193.227 56.2729V56.1538H200.811V55.9156C200.811 52.9254 199.549 50.2791 196.237 50.2791ZM193.227 54.791C193.22 53.9871 193.527 53.2128 194.083 52.6358C194.639 52.0588 195.399 51.7255 196.197 51.7081C197.854 51.7081 198.931 52.8724 199.089 54.791H193.227ZM206.805 59.6734C204.925 59.6734 203.795 58.1782 203.795 55.7039C203.795 53.2297 205.004 51.7345 206.923 51.7345C207.547 51.7044 208.159 51.9171 208.631 52.3285C209.103 52.7399 209.4 53.3184 209.46 53.9442H211.182C211.155 53.4148 211.021 52.8967 210.787 52.4215C210.554 51.9464 210.227 51.5242 209.825 51.181C209.424 50.8378 208.957 50.5808 208.454 50.4257C207.95 50.2706 207.42 50.2207 206.897 50.2791C203.926 50.2791 202.047 52.4093 202.047 55.7833C202.047 58.8662 203.703 61.0759 206.831 61.0759C207.937 61.1337 209.021 60.7487 209.846 60.005C210.671 59.2614 211.17 58.2193 211.235 57.1065H209.552C209.542 57.4575 209.463 57.803 209.319 58.1228C209.175 58.4426 208.969 58.7304 208.713 58.9693C208.457 59.2082 208.157 59.3935 207.829 59.5144C207.502 59.6353 207.154 59.6893 206.805 59.6734ZM218.202 54.4999H214.652V50.6231H212.944V60.7716H218.28C218.689 60.7663 219.094 60.6801 219.47 60.5177C219.846 60.3553 220.186 60.1199 220.472 59.825C220.757 59.5301 220.982 59.1815 221.134 58.7991C221.286 58.4166 221.361 58.0078 221.356 57.596C221.351 57.1842 221.265 56.7775 221.104 56.399C220.943 56.0206 220.709 55.6778 220.416 55.3903C220.123 55.1028 219.777 54.8762 219.397 54.7234C219.017 54.5706 218.611 54.4947 218.202 54.4999V54.4999ZM217.676 59.3029H214.652V55.9421H217.715C219.109 55.9421 219.805 56.5375 219.805 57.6093C219.805 58.681 219.082 59.3029 217.715 59.3029H217.676Z" fill="#7C7B7B"/>
</g>
<defs>
<clipPath id="clip0_14_1173">
<rect width="314" height="64" fill="white"/>
</clipPath>
</defs>
</svg>
