<svg width="130" height="17" viewBox="0 0 130 17" fill="none" xmlns="http://www.w3.org/2000/svg">
<path d="M9.31909 0.0903473H8.07034L7.26851 4.21852H4.71845L5.49398 0.0903473H4.17951L3.40398 4.21852H1.12995V5.30349H3.2331L2.64159 8.57164H0.328125V9.66984H2.43127L1.65574 13.8245H2.97021L3.74574 9.66984H6.28266L5.52028 13.8245H6.83474L7.61028 9.66984H9.93689V8.57164H7.83373L8.46468 5.34319H10.765V4.25822H8.66185L9.31909 0.0903473ZM6.4667 8.57164H3.95606L4.56071 5.34319H7.12393L6.4667 8.57164ZM20.6629 3.67604H18.4152L13.8014 8.51871V3.62311H12.1715V13.7716H13.8277V10.3314L15.4051 8.78334L19.0724 13.7716H21.1756L16.5881 7.61898L20.6629 3.67604ZM26.7226 3.2791C23.6731 3.2791 21.7802 5.34319 21.7802 8.69072C21.7802 12.0382 23.6205 13.9833 26.7095 13.9833C29.7985 13.9833 31.5599 12.0779 31.5599 8.63779C31.5599 5.19764 29.7722 3.2791 26.7226 3.2791ZM26.7226 12.6204C24.6984 12.6204 23.5022 11.1518 23.5022 8.65103C23.5022 6.1503 24.7378 4.68162 26.6832 4.68162C28.6286 4.68162 29.8511 6.21646 29.8511 8.65103C29.8511 11.0856 28.668 12.6734 26.7226 12.6734V12.6204ZM37.7642 12.6204C35.8845 12.6204 34.754 11.1253 34.754 8.65103C34.754 6.17677 35.9633 4.68162 37.8825 4.68162C38.5063 4.65153 39.1178 4.8642 39.5901 5.27557C40.0624 5.68695 40.3593 6.26548 40.4194 6.89126H42.0756C41.9851 5.85177 41.4917 4.88994 40.702 4.21393C39.9123 3.53791 38.89 3.20208 37.8562 3.2791C34.8855 3.2791 33.0058 5.40935 33.0058 8.78334C33.0058 11.8662 34.662 14.0759 37.7904 14.0759C38.8964 14.1337 39.9802 13.7487 40.8052 13.005C41.6302 12.2614 42.1294 11.2193 42.1939 10.1065H40.5114C40.5013 10.4575 40.4219 10.803 40.2778 11.1228C40.1337 11.4426 39.9278 11.7304 39.6721 11.9693C39.4164 12.2082 39.116 12.3935 38.7884 12.5144C38.4609 12.6353 38.1127 12.6893 37.7642 12.6734V12.6204ZM49.4892 11.8001L46.4265 3.58342H44.0473V13.7319H45.7035V5.79306L48.6874 13.7319H50.2122L53.196 5.79306V13.7319H54.8522V3.62311H52.5914L49.4892 11.8001ZM61.7926 3.2791C58.7431 3.2791 56.8502 5.34319 56.8502 8.69072C56.8502 12.0382 58.6905 13.9833 61.7663 13.9833C64.8422 13.9833 66.6167 11.9721 66.6167 8.53195C66.6167 5.0918 64.8553 3.2791 61.7926 3.2791ZM61.7926 12.6204C59.7552 12.6204 58.5722 11.1518 58.5722 8.65103C58.5722 6.1503 59.8078 4.68162 61.7532 4.68162C63.6986 4.68162 64.9211 6.21646 64.9211 8.65103C64.9211 11.0856 63.7643 12.6734 61.7926 12.6734V12.6204ZM72.8342 12.6204C70.9545 12.6204 69.824 11.1253 69.824 8.65103C69.824 6.17677 71.0333 4.68162 72.9525 4.68162C73.5763 4.65153 74.1878 4.8642 74.6601 5.27557C75.1324 5.68695 75.4293 6.26548 75.4894 6.89126H77.2113C77.1667 6.37164 77.0207 5.86598 76.7818 5.40318C76.5429 4.94038 76.2157 4.5295 75.819 4.19404C75.4222 3.85858 74.9637 3.60511 74.4696 3.44812C73.9755 3.29113 73.4555 3.2337 72.9393 3.2791C69.9686 3.2791 68.0889 5.40935 68.0889 8.78334C68.0889 11.8662 69.7452 14.0759 72.8736 14.0759C73.9773 14.1301 75.0577 13.7435 75.8799 13.0002C76.702 12.2569 77.1994 11.2169 77.2639 10.1065H75.5945C75.5844 10.4575 75.505 10.803 75.3609 11.1228C75.2168 11.4426 75.0109 11.7304 74.7552 11.9693C74.4995 12.2082 74.1991 12.3935 73.8716 12.5144C73.544 12.6353 73.1958 12.6893 72.8473 12.6734L72.8342 12.6204ZM84.9404 8.20116C85.4114 8.0813 85.8279 7.80389 86.1217 7.41442C86.4155 7.02495 86.569 6.54654 86.5572 6.05768C86.5572 4.1656 84.8353 3.31879 82.7715 3.31879C80.7078 3.31879 78.6704 4.04652 78.5126 6.54724H80.1952C80.3266 5.22411 81.5096 4.68162 82.7584 4.68162C84.0071 4.68162 84.8878 5.39611 84.8878 6.13707C84.8878 7.34112 83.9283 7.79099 82.7584 7.79099H81.6411V9.11412H83.0213C84.5723 9.11412 85.177 9.74923 85.177 10.768C85.177 11.7869 84.2832 12.6998 82.6926 12.6998C81.1021 12.6998 80.0637 12.0382 80.0637 10.5828H78.3549C78.4732 12.7792 80.09 14.0626 82.7321 14.0626C84.8615 14.0626 86.9121 12.938 86.9121 10.7416C86.9436 10.1578 86.7618 9.58254 86.401 9.12433C86.0402 8.66613 85.5254 8.35659 84.9535 8.25408L84.9404 8.20116ZM97.2832 3.62311H90.0931V5.79306C90.0858 8.02903 89.6391 10.2415 88.7786 12.3029H87.6876V17H89.3964V13.7716H97.0992V17H98.5977V12.3029H97.2832V3.62311ZM95.627 12.2896H90.5795C91.369 10.2673 91.7661 8.11141 91.7493 5.9386V5.09179H95.6927L95.627 12.2896ZM104.237 3.2791C101.437 3.2791 99.5441 5.50197 99.5441 8.78334C99.5441 12.0647 101.319 14.0759 104.289 14.0759C105.332 14.1602 106.368 13.84 107.184 13.1807C108.001 12.5215 108.535 11.5732 108.68 10.5299H107.063C106.965 11.1681 106.633 11.7459 106.131 12.1481C105.629 12.5502 104.995 12.7473 104.355 12.6998C103.916 12.7143 103.48 12.6332 103.075 12.4622C102.67 12.2911 102.307 12.0342 102.01 11.7088C101.713 11.3834 101.489 10.9974 101.354 10.577C101.219 10.1566 101.175 9.71174 101.227 9.2729V9.15381H108.811V8.91565C108.811 5.92537 107.549 3.2791 104.237 3.2791ZM101.227 7.79099C101.22 6.98713 101.527 6.21283 102.083 5.63579C102.639 5.05876 103.399 4.72546 104.197 4.70809C105.854 4.70809 106.931 5.87244 107.089 7.79099H101.227ZM114.805 12.6734C112.925 12.6734 111.795 11.1782 111.795 8.70395C111.795 6.22969 113.004 4.73455 114.923 4.73455C115.547 4.70445 116.159 4.91712 116.631 5.3285C117.103 5.73987 117.4 6.3184 117.46 6.94418H119.182C119.155 6.41484 119.021 5.89669 118.787 5.42154C118.554 4.94638 118.227 4.52424 117.825 4.18103C117.424 3.83782 116.957 3.58077 116.454 3.42568C115.95 3.27058 115.42 3.2207 114.897 3.2791C111.926 3.2791 110.047 5.40935 110.047 8.78334C110.047 11.8662 111.703 14.0759 114.831 14.0759C115.937 14.1337 117.021 13.7487 117.846 13.005C118.671 12.2614 119.17 11.2193 119.235 10.1065H117.552C117.542 10.4575 117.463 10.803 117.319 11.1228C117.175 11.4426 116.969 11.7304 116.713 11.9693C116.457 12.2082 116.157 12.3935 115.829 12.5144C115.502 12.6353 115.154 12.6893 114.805 12.6734ZM126.202 7.4999H122.652V3.62311H120.944V13.7716H126.28C126.689 13.7663 127.094 13.6801 127.47 13.5177C127.846 13.3553 128.186 13.1199 128.472 12.825C128.757 12.5301 128.982 12.1815 129.134 11.7991C129.286 11.4166 129.361 11.0078 129.356 10.596C129.351 10.1842 129.265 9.77749 129.104 9.39902C128.943 9.02056 128.709 8.6778 128.416 8.3903C128.123 8.10279 127.777 7.87618 127.397 7.72341C127.017 7.57063 126.611 7.49468 126.202 7.4999ZM125.676 12.3029H122.652V8.94211H125.715C127.109 8.94211 127.805 9.53753 127.805 10.6093C127.805 11.681 127.082 12.3029 125.715 12.3029H125.676Z" fill="#7C7B7B"/>
</svg>
